<svg xmlns="http://www.w3.org/2000/svg" width="40" height="40" viewBox="0 0 40 40"><g fill="#1AACDB"><polyline points="5.5,27.051 27.5,27.051 27.5,26.051 5.5,26.051"/><polyline points="6.5,26.051 6.5,11.05 5.5,11.05 5.5,26.051"/><polyline points="28.5,27.051 28.5,10.05 27.5,10.05 27.5,27.051"/><polyline points="4.5,18.05 4.5,13.05 3.5,13.05 3.5,18.05"/><polyline points="5.5,11.05 27.5,11.05 27.5,10.05 5.5,10.05"/><path d="M35.717,11.147l0.162,0.473l-0.076-0.22v0.232l0.076-0.012l-0.076-0.22v0.232v-0.311l-0.226,0.209 l0.226,0.102v-0.311l-0.226,0.209l0.194-0.181H35.5l0.077,0.181l0.194-0.181H35.5v13.984h0.288l-0.216-0.181L35.5,25.333h0.288 l-0.216-0.181l0.271,0.228v-0.354l-0.271,0.129l0.271,0.227v-0.355v0.257l0.118-0.23l-0.118-0.024v0.256l0.118-0.23l-7.465-3.897 l-0.002-0.001l-0.033,0.066l0.054-0.055l-0.021-0.014l-0.033,0.067l0.054-0.055L28.5,21.141l-0.002-0.006l-0.094,0.021H28.5 l-0.002-0.021l-0.094,0.021H28.5v-7.072h-0.08l0.07,0.05l0.01-0.05h-0.08l0.07,0.05l-0.07-0.051l0.025,0.077l0.045-0.026 l-0.07-0.051l0.025,0.077l7.433-2.54h0.001L35.717,11.147l-0.162-0.473l-7.433,2.54c-0.2,0.071-0.341,0.195-0.445,0.339 c-0.103,0.146-0.175,0.319-0.177,0.531v7.072c0.002,0.203,0.064,0.367,0.15,0.512c0.09,0.145,0.205,0.275,0.385,0.371l0,0 l7.467,3.9h0.002c0.098,0.049,0.21,0.086,0.342,0.086c0.174,0.004,0.377-0.082,0.494-0.23c0.121-0.145,0.16-0.314,0.16-0.461V11.35 c0.001-0.169-0.057-0.356-0.189-0.499c-0.129-0.144-0.326-0.222-0.508-0.219l-0.248,0.042l0,0L35.717,11.147z"/></g><rect x="145" y="514" fill="#fff" stroke="#000" stroke-miterlimit="10" width="17" height="24"/><rect x="138" y="521" fill="#fff" stroke="#000" stroke-miterlimit="10" width="17" height="23"/><polyline fill="none" stroke="#1AACDB" stroke-miterlimit="10" points="16.5,27.051 16.5,34.667 20.063,34.667 20.063,27.051"/></svg>