<svg xmlns="http://www.w3.org/2000/svg" width="40" height="40" viewBox="0 0 40 40"><g fill="#1AACDB"><path d="M30.088,18.937l6.578,3.547l0.002,0.001l0.107-0.2l-0.166,0.15l0.059,0.05l0.107-0.2l-0.166,0.15 l0.311-0.281h-0.416c0.002,0.15,0.07,0.243,0.105,0.281l0.311-0.281h-0.416h0.43l-0.25-0.355c-0.061,0.035-0.182,0.175-0.18,0.355 h0.43l-0.25-0.355l0.143,0.201l-0.049-0.247l-0.094,0.046l0.143,0.201l-0.049-0.247l-21.09,4.04h0l-0.024,0.001l-0.116-0.015 l-0.067-0.022L5.011,19.655l-0.112,0.191l0.167-0.143l-0.054-0.049l-0.112,0.191l0.167-0.143l-0.316,0.271h0.413 c-0.001-0.146-0.064-0.234-0.097-0.271l-0.316,0.271h0.413H4.731l0.242,0.363c0.065-0.035,0.192-0.182,0.188-0.363H4.731 l0.242,0.363L4.834,20.13l0.04,0.253l0.1-0.044L4.834,20.13l0.04,0.253l6.453-1.021l-0.156-0.986l-6.452,1.02 c-0.09,0.016-0.185,0.037-0.3,0.111c-0.11,0.064-0.26,0.248-0.256,0.469c0.002,0.18,0.081,0.305,0.145,0.381l0.2,0.162 l10.469,6.102c0.229,0.127,0.448,0.168,0.687,0.173l0.214-0.02l21.091-4.04h0.001c0.089-0.019,0.181-0.043,0.291-0.118 c0.104-0.066,0.248-0.243,0.244-0.462c-0.001-0.186-0.086-0.314-0.154-0.39l-0.209-0.16l-0.025-0.014l-6.553-3.532L30.088,18.937zM36.873,17.243l0.096,0.49c0.088-0.019,0.181-0.043,0.291-0.118c0.104-0.066,0.248-0.243,0.244-0.462 c-0.001-0.186-0.086-0.314-0.154-0.39l-0.21-0.161l-0.027-0.014L27.02,11.157c-0.229-0.117-0.451-0.158-0.691-0.163l-0.188,0.015 L4.718,14.396c-0.09,0.016-0.185,0.037-0.299,0.111c-0.11,0.064-0.261,0.248-0.257,0.469c0.002,0.18,0.081,0.305,0.145,0.381 l0.2,0.162l10.469,6.102c0.23,0.127,0.448,0.168,0.687,0.173l0.211-0.019l0.016-0.004l21.078-4.037h0.001L36.873,17.243 l-0.094-0.492l-21.092,4.041l0.002-0.001l-0.027,0.002l-0.116-0.015l-0.067-0.021L5.011,14.655L4.9,14.847l0.166-0.143 l-0.054-0.049L4.9,14.847l0.166-0.143l-0.316,0.271h0.413c-0.001-0.146-0.064-0.234-0.097-0.271l-0.316,0.271h0.413H4.731 l0.242,0.363c0.065-0.034,0.193-0.182,0.189-0.363H4.731l0.242,0.363l-0.139-0.208l0.04,0.252l0.099-0.044l-0.139-0.208l0.04,0.252 l21.426-3.388h0.004l0.023-0.001l0.219,0.044l10.12,5.446l0.001,0.001l0.107-0.201l-0.166,0.15l0.059,0.051l0.107-0.201 l-0.166,0.15l0.311-0.281h-0.416c0.002,0.15,0.07,0.243,0.105,0.281l0.311-0.281h-0.416h0.43l-0.25-0.355 c-0.061,0.035-0.182,0.175-0.18,0.355h0.43l-0.25-0.355l0.143,0.203l-0.048-0.249l-0.095,0.046l0.143,0.203l-0.048-0.249 l0.001-0.001L36.873,17.243zM30.088,23.937l6.578,3.547l0.002,0.001l0.107-0.2l-0.166,0.15l0.059,0.05l0.107-0.2l-0.166,0.15 l0.311-0.281h-0.416c0.002,0.15,0.07,0.243,0.105,0.281l0.311-0.281h-0.416h0.43l-0.25-0.355c-0.061,0.035-0.182,0.175-0.18,0.355 h0.43l-0.25-0.355l0.143,0.201l-0.049-0.247l-0.094,0.046l0.143,0.201l-0.049-0.247l-21.09,4.04h0l-0.024,0.001l-0.116-0.015 l-0.067-0.022L5.011,24.655l-0.112,0.191l0.167-0.143l-0.054-0.049l-0.112,0.191l0.167-0.143l-0.316,0.271h0.413 c-0.001-0.146-0.064-0.234-0.097-0.271l-0.316,0.271h0.413H4.731l0.242,0.363c0.065-0.035,0.192-0.182,0.188-0.363H4.731 l0.242,0.363L4.834,25.13l0.04,0.253l0.1-0.044L4.834,25.13l0.04,0.253l6.453-1.021l-0.156-0.986l-6.452,1.02 c-0.09,0.016-0.185,0.037-0.3,0.111c-0.11,0.064-0.26,0.248-0.256,0.469c0.002,0.18,0.081,0.305,0.145,0.381l0.2,0.162 l10.469,6.102c0.229,0.127,0.448,0.168,0.687,0.173l0.214-0.02l21.091-4.04h0.001c0.089-0.019,0.181-0.043,0.291-0.118 c0.104-0.066,0.248-0.243,0.244-0.462c-0.001-0.186-0.086-0.314-0.154-0.39l-0.209-0.16l-0.025-0.014l-6.553-3.532L30.088,23.937z"/></g></svg>