<svg xmlns="http://www.w3.org/2000/svg" width="40" height="40" viewBox="0 0 40 40"><g fill="#1AACDB"><path d="M17.592,21.846l-0.498,0.051c0.141,1.305,0.716,2.383,0.865,3.432c0.091,0.6,0.3,1.082,0.462,1.52 c0.164,0.439,0.286,0.828,0.286,1.299v0.014l0.5-0.006l-0.5-0.002c-0.005,0.857-0.064,1.412-0.406,2.08 c-0.2,0.389-0.556,0.811-0.968,1.115c-0.413,0.309-0.874,0.492-1.275,0.49c-0.271-0.002-0.519-0.072-0.775-0.256 c-0.291-0.207-0.658-0.633-0.975-1.113c-0.32-0.479-0.601-1.016-0.772-1.443c-0.497-1.221-0.546-2.975-0.695-4.52 c-0.143-1.326,0.111-3.008-0.392-4.51c-0.226-0.657-0.39-1.078-0.522-1.717c-0.361-1.717-0.917-3.098-0.913-4.74 c0-1.245,0.301-2.598,0.858-3.784c0.557-1.188,1.366-2.203,2.348-2.811c0.646-0.4,1.192-0.554,1.653-0.554 c0.536,0.002,0.989,0.199,1.419,0.575c0.642,0.562,1.176,1.55,1.527,2.693c0.353,1.141,0.531,2.429,0.53,3.567 c0.002,0.965-0.132,1.828-0.356,2.374c-0.383,0.945-0.956,1.802-1.479,2.785c-0.378,0.721-0.477,1.576-0.479,2.397 c0,0.385,0.024,0.764,0.06,1.115L17.592,21.846l0.498-0.049c-0.033-0.326-0.055-0.672-0.055-1.016 c-0.002-0.733,0.106-1.454,0.362-1.928c0.489-0.924,1.087-1.809,1.523-2.876c0.298-0.74,0.428-1.696,0.43-2.75 c-0.002-1.654-0.332-3.539-1.03-5.066c-0.351-0.763-0.795-1.44-1.365-1.945c-0.566-0.503-1.279-0.828-2.081-0.825 c-0.689,0-1.42,0.231-2.181,0.704C12.5,6.836,11.589,8.008,10.968,9.33c-0.62,1.324-0.952,2.805-0.953,4.209 c0.004,1.875,0.606,3.342,0.933,4.943c0.149,0.721,0.339,1.207,0.555,1.838c0.413,1.167,0.205,2.788,0.343,4.286 c0.153,1.492,0.173,3.309,0.762,4.793c0.203,0.504,0.508,1.086,0.867,1.625c0.361,0.539,0.766,1.035,1.221,1.369 c0.421,0.307,0.9,0.447,1.362,0.445c0.693-0.002,1.335-0.289,1.872-0.688c0.537-0.4,0.978-0.916,1.26-1.459 c0.442-0.85,0.517-1.643,0.517-2.535V28.15v-0.002v-0.002c0-0.652-0.176-1.186-0.349-1.648c-0.175-0.467-0.343-0.871-0.41-1.318 c-0.202-1.271-0.762-2.334-0.858-3.383L17.592,21.846z"/><polyline points="12.389,25.055 18.199,24.537 18.11,23.541 12.3,24.059"/><path d="M24.772,26.846l-0.497-0.049c-0.097,1.049-0.657,2.111-0.858,3.383c-0.066,0.447-0.234,0.852-0.41,1.318 c-0.174,0.463-0.35,0.996-0.349,1.648v0.029l0.499-0.021l-0.499,0.002c0,0.893,0.074,1.686,0.517,2.535 c0.283,0.543,0.723,1.059,1.26,1.459c0.537,0.398,1.178,0.686,1.872,0.688c0.461,0.002,0.94-0.139,1.362-0.445 c0.455-0.334,0.859-0.83,1.221-1.369c0.358-0.539,0.664-1.121,0.867-1.625c0.589-1.484,0.608-3.301,0.762-4.793 c0.138-1.498-0.07-3.119,0.344-4.285c0.215-0.631,0.405-1.117,0.555-1.838c0.326-1.602,0.93-3.069,0.934-4.944 c-0.002-1.404-0.334-2.885-0.953-4.209c-0.621-1.322-1.533-2.493-2.727-3.235c-0.76-0.473-1.492-0.704-2.18-0.704 c-0.803-0.002-1.516,0.322-2.082,0.825c-0.852,0.758-1.431,1.897-1.819,3.148c-0.387,1.252-0.574,2.622-0.576,3.863 c0.002,1.055,0.133,2.011,0.431,2.75c0.437,1.068,1.033,1.953,1.523,2.877c0.256,0.475,0.365,1.195,0.362,1.928 c0,0.344-0.022,0.689-0.055,1.016L24.772,26.846l0.498,0.051c0.035-0.352,0.06-0.73,0.06-1.115 c-0.003-0.82-0.101-1.676-0.479-2.396c-0.524-0.982-1.097-1.84-1.48-2.785c-0.225-0.545-0.357-1.409-0.355-2.374 c-0.002-1.518,0.318-3.301,0.939-4.649c0.309-0.674,0.691-1.237,1.117-1.612c0.431-0.376,0.883-0.573,1.42-0.575 c0.461,0,1.008,0.154,1.652,0.554c0.982,0.608,1.792,1.623,2.349,2.811c0.557,1.186,0.858,2.54,0.858,3.784 c0.004,1.643-0.553,3.024-0.913,4.741c-0.132,0.639-0.296,1.059-0.522,1.717c-0.502,1.502-0.25,3.184-0.392,4.51 c-0.148,1.545-0.198,3.299-0.694,4.52c-0.172,0.428-0.453,0.965-0.772,1.443c-0.317,0.48-0.685,0.906-0.976,1.113 c-0.256,0.184-0.504,0.254-0.774,0.256c-0.401,0.002-0.862-0.182-1.275-0.49c-0.412-0.305-0.768-0.727-0.968-1.115 c-0.342-0.668-0.4-1.223-0.406-2.08v-0.01v-0.01l-0.381,0.016l0.381-0.002v-0.014l-0.381,0.016l0.381-0.002l0,0 c0.001-0.471,0.123-0.859,0.287-1.299c0.161-0.438,0.369-0.92,0.461-1.52c0.148-1.049,0.725-2.127,0.865-3.432L24.772,26.846z"/><polyline points="30.065,29.059 24.255,28.541 24.167,29.537 29.977,30.055"/></g></svg>